<svg xmlns="http://www.w3.org/2000/svg" viewBox="150 -80.5 703 703">
  <g transform="matrix(0.884546,0,0,0.884546,0,13.092066)">
    <g transform="matrix(0.031264,0,0,0.031205,0,0)">
      <path d="M21672,5344C21653,5342 21632,5347 21610,5363C21599,5372 21576,5388 21511,5510C21466,5594 21315,5826 21262,5925C21206,6031 21199,6025 21143,6117C19802,8301 19795,8297 19682,8489C19676,8499 18023,11187 18008,11211C17658,11764 17376,12242 17345,12288C17052,12736 15896,14674 15613,15110C15422,15403 15456,15495 15301,15456C15268,15448 15275,15439 15161,15272C15064,15130 13946,13363 13836,13201C13625,12894 13591,12652 13369,12852C12379,13745 11967,14125 11846,14237C11712,14361 10769,15232 10158,15776C9524,16340 8799,17033 8605,17209C8330,17459 8301,17432 8295,17464C8291,17490 8306,17517 8318,17541C8346,17601 8362,17584 8428,17581C9227,17545 9225,17571 16711,17561C16728,17561 17019,17583 17102,17501C17160,17442 17218,17316 17233,17291C17325,17137 17983,15988 18048,15875C18243,15535 20260,12018 20503,11632C20650,11398 21314,10202 21362,10170C21379,10159 21469,10172 21481,10186C21490,10197 21487,10198 21566,10338C21686,10549 21689,10546 21812,10754C22088,11220 22391,11717 22442,11800C22936,12610 22914,12622 22963,12688C22978,12709 23068,12728 23088,12716C23141,12684 23423,12154 23647,11796C23903,11386 23916,11173 24174,11387C24254,11453 24987,12062 25168,12217C25962,12899 26013,12941 26226,13163C26269,13208 26272,13202 26317,13243C26325,13251 26324,13268 26334,13272C26344,13277 26450,13323 26456,13219C26458,13185 26230,12907 25977,12480C25645,11918 25645,11919 25616,11870C24016,9135 21930,5715 21770,5427C21765,5418 21728,5350 21672,5344ZM21687,3193C21706,3191 21728,3195 21752,3210C21761,3216 22730,4866 22866,5086C23156,5553 23208,5671 24842,8406C25178,8968 25179,8966 25208,9015C27382,12737 29686,16570 29711,16618C29783,16755 30352,17696 30393,17767C30806,18477 30817,18469 30849,18533C30856,18545 30919,18671 30803,18704C30785,18708 29577,18707 29470,18706C29311,18706 27759,18703 27482,18704C26620,18707 6682,18702 6272,18704C5577,18707 5577,18718 5518,18708C5417,18692 5432,18610 5434,18599C5442,18561 5508,18538 6003,18083C6055,18035 10529,13965 10732,13783C10969,13562 10975,13571 11209,13349C11669,12914 12021,12607 12333,12320C12437,12225 13581,11176 13642,11141C13846,11023 13847,11167 14122,11573C14124,11576 14829,12672 14871,12732C15087,13045 15205,13301 15310,13345C15361,13366 15384,13355 15563,13059C15578,13033 16396,11721 16886,10903C17459,9945 17482,9961 18052,9002C18123,8881 21536,3385 21594,3272C21598,3263 21631,3199 21687,3193Z" style="fill:rgb(255,255,255);"/>
      <path d="M15345,11722C15316,11115 15248,10212 15241,10147C15172,9530 15181,9529 15169,9477C15147,9381 14968,9312 14805,9247C14775,9234 13427,8641 13413,8634C13366,8609 11856,7947 11819,7925C11686,7845 11786,7642 11958,7071C12578,5017 12592,5021 12644,4842C12700,4651 12742,4642 12683,4577C12671,4564 12667,4541 12651,4534C12595,4513 12257,4637 12233,4644C11787,4767 11790,4775 11752,4786C11712,4797 11319,4903 11256,4940C11138,5010 10819,5639 10688,5851C10602,5991 9957,7154 9852,7189C9723,7232 9496,7094 9271,6981C9218,6955 9053,6914 9083,6749C9087,6728 9305,6233 9456,5939C9589,5679 9577,5674 9662,5502C10355,4089 10329,4068 10447,3969C10457,3961 10718,3843 10923,3789C11032,3760 12759,3186 12815,3168C13457,2961 13485,2885 13989,3087C14517,3299 15010,3456 15143,3514C15390,3621 15706,4121 15954,4442C16529,5191 16595,5363 16712,5372C16807,5379 17519,5060 17555,5046C18096,4834 18082,4803 18375,4695C18961,4478 19068,4301 19197,4597C19291,4810 19461,5116 19463,5176C19468,5287 19434,5298 18794,5612C17937,6032 17938,6033 17864,6069C16943,6511 16949,6522 16868,6558C16469,6738 16410,6787 16319,6724C16243,6671 15313,5595 15308,5589C15162,5431 15161,5432 15148,5418C15045,5303 15059,5271 14975,5272C14883,5274 14911,5321 14750,5767C14620,6128 14627,6131 14616,6162C14241,7195 14257,7257 14318,7327C14396,7419 15523,7982 15872,8184C16349,8461 16434,8416 16460,8658C16520,9228 16500,9228 16529,9985C16546,10421 16487,10416 16260,10789C16219,10858 15762,11612 15735,11651C15596,11856 15536,12032 15467,12040C15348,12054 15354,11869 15345,11722" style="fill:rgb(251,195,5);"/>
      <path d="M9429,12815C9593,12588 9743,12342 9828,12225C10024,11954 10009,11946 10202,11674C10527,11214 10516,11208 10825,10735C11146,10244 11086,10064 11325,9248C11483,8708 11496,8510 11566,8485C11665,8451 11666,8485 11986,8602C12053,8627 12049,8634 12804,8959C13068,9073 12932,9210 12749,9751C12710,9866 12521,10348 12497,10413C12136,11414 12006,11343 11570,11977C11399,12227 11383,12213 11285,12344C10974,12758 10883,12756 9775,13828C9630,13968 9544,14110 9407,14003C8949,13647 8931,13607 8994,13465C8999,13454 9331,12952 9429,12815" style="fill:rgb(251,194,5);"/>
      <path d="M13848,1456C13852,1283 13832,792 14369,343C14745,29 15226,-54 15551,52C15817,138 15821,132 16051,292C16622,686 16816,1545 16432,2184C16413,2215 16261,2411 16258,2414C15652,2986 14890,2938 14466,2638C13867,2216 13856,1729 13848,1456" style="fill:rgb(251,196,4);"/>
    </g>
  </g>
</svg>