<?xml version="1.0" encoding="UTF-8" standalone="no"?>
<!DOCTYPE svg PUBLIC "-//W3C//DTD SVG 1.1//EN" "http://www.w3.org/Graphics/SVG/1.1/DTD/svg11.dtd">
<svg width="100%" height="100%" viewBox="0 0 1000 1000" version="1.1" xmlns="http://www.w3.org/2000/svg" xmlns:xlink="http://www.w3.org/1999/xlink" xml:space="preserve" xmlns:serif="http://www.serif.com/" style="fill-rule:evenodd;clip-rule:evenodd;stroke-linejoin:round;stroke-miterlimit:2;">
    <g transform="matrix(0.884546,0,0,0.884546,-0,13.092066)">
        <g transform="matrix(0.031264,0,0,0.031205,0,0)">
            <path d="M21672,5344C21653,5342 21632,5347 21610,5363C21599,5372 21576,5388 21511,5510C21466,5594 21315,5826 21262,5925C21206,6031 21199,6025 21143,6117C19802,8301 19795,8297 19682,8489C19676,8499 18023,11187 18008,11211C17658,11764 17376,12242 17345,12288C17052,12736 15896,14674 15613,15110C15422,15403 15456,15495 15301,15456C15268,15448 15275,15439 15161,15272C15064,15130 13946,13363 13836,13201C13625,12894 13591,12652 13369,12852C12379,13745 11967,14125 11846,14237C11712,14361 10769,15232 10158,15776C9524,16340 8799,17033 8605,17209C8330,17459 8301,17432 8295,17464C8291,17490 8306,17517 8318,17541C8346,17601 8362,17584 8428,17581C9227,17545 9225,17571 16711,17561C16728,17561 17019,17583 17102,17501C17160,17442 17218,17316 17233,17291C17325,17137 17983,15988 18048,15875C18243,15535 20260,12018 20503,11632C20650,11398 21314,10202 21362,10170C21379,10159 21469,10172 21481,10186C21490,10197 21487,10198 21566,10338C21686,10549 21689,10546 21812,10754C22088,11220 22391,11717 22442,11800C22936,12610 22914,12622 22963,12688C22978,12709 23068,12728 23088,12716C23141,12684 23423,12154 23647,11796C23903,11386 23916,11173 24174,11387C24254,11453 24987,12062 25168,12217C25962,12899 26013,12941 26226,13163C26269,13208 26272,13202 26317,13243C26325,13251 26324,13268 26334,13272C26344,13277 26450,13323 26456,13219C26458,13185 26230,12907 25977,12480C25645,11918 25645,11919 25616,11870C24016,9135 21930,5715 21770,5427C21765,5418 21728,5350 21672,5344ZM21687,3193C21706,3191 21728,3195 21752,3210C21761,3216 22730,4866 22866,5086C23156,5553 23208,5671 24842,8406C25178,8968 25179,8966 25208,9015C27382,12737 29686,16570 29711,16618C29783,16755 30352,17696 30393,17767C30806,18477 30817,18469 30849,18533C30856,18545 30919,18671 30803,18704C30785,18708 29577,18707 29470,18706C29311,18706 27759,18703 27482,18704C26620,18707 6682,18702 6272,18704C5577,18707 5577,18718 5518,18708C5417,18692 5432,18610 5434,18599C5442,18561 5508,18538 6003,18083C6055,18035 10529,13965 10732,13783C10969,13562 10975,13571 11209,13349C11669,12914 12021,12607 12333,12320C12437,12225 13581,11176 13642,11141C13846,11023 13847,11167 14122,11573C14124,11576 14829,12672 14871,12732C15087,13045 15205,13301 15310,13345C15361,13366 15384,13355 15563,13059C15578,13033 16396,11721 16886,10903C17459,9945 17482,9961 18052,9002C18123,8881 21536,3385 21594,3272C21598,3263 21631,3199 21687,3193Z" style="fill:rgb(14,16,15);"/>
        </g>
        <rect x="0" y="0" width="1130.523" height="1100.922" style="fill:none;"/>
        <clipPath id="_clip1">
            <rect x="0" y="0" width="1130.523" height="1100.922"/>
        </clipPath>
        <g clip-path="url(#_clip1)">
            <g transform="matrix(0.062529,0,0,0.062411,0,0)">
                <path d="M14905,14604C13743,14639 13845,15291 13850,15602C13851,15639 13855,15868 14010,16042C14314,16383 15066,16325 15113,16325C15267,16323 15266,16323 15279,16323C15320,16321 15548,16314 15777,16224C15904,16174 15972,16115 15986,16102C16199,15915 16204,15665 16205,15602C16214,15216 16282,14649 15154,14606C15065,14602 14982,14602 14905,14604ZM14952,13286C15145,13282 15384,13286 15612,13310C15694,13320 15692,13328 15775,13335C16035,13357 16537,13457 16942,13688C17836,14196 17830,15074 17818,15601C17801,16383 17560,16777 17154,17105C17123,17130 16753,17416 16153,17526C16096,17536 16074,17556 15899,17574C15732,17592 15734,17598 15567,17614C14920,17658 14660,17634 14119,17571C13994,17557 13526,17462 13209,17294C12321,16825 12231,16132 12246,15311C12251,15010 12245,13799 13781,13427C14037,13364 14208,13329 14572,13303C14614,13300 14760,13289 14952,13286Z" style="fill:rgb(251,196,3);"/>
            </g>
            <g transform="matrix(0.062529,0,0,0.062411,0,0)">
                <path d="M9350,14614C8838,14614 8164,14617 8071,14617C8065,14617 7997,14618 7990,14620C7929,14638 7928,14660 7924,14855C7921,15021 7931,15020 7924,15187C7930,15235 7903,15314 8029,15316C8180,15317 9554,15315 9687,15315C9818,15315 10047,15344 10168,15136C10254,14988 10215,14662 9934,14620C9905,14616 9657,14614 9350,14614ZM9489,13404C9939,13404 10304,13405 10350,13407C11035,13431 11380,13868 11399,13889C11729,14236 11786,14657 11796,14731C11867,15250 11702,15743 11336,16088C11227,16190 11224,16186 11101,16271C10985,16351 10898,16350 10983,16463C11531,17194 11538,17188 11660,17353C11687,17390 11686,17390 11713,17427C11745,17469 11748,17465 11749,17470C11759,17499 11758,17502 11734,17523C11713,17541 11709,17535 11469,17537C11288,17539 10168,17535 10144,17534C10039,17527 10035,17465 9757,17102C9730,17067 9558,16822 9514,16767C9378,16596 9368,16536 9272,16528C9240,16525 8268,16527 8112,16526C8103,16526 7996,16526 7990,16528C7929,16545 7928,16582 7925,16678C7924,16705 7925,17250 7925,17299C7925,17341 7926,17341 7928,17382C7924,17409 7930,17436 7927,17463C7919,17517 7913,17519 7861,17535C7850,17539 7849,17538 7201,17538C6828,17537 6829,17543 6455,17539C6313,17538 6334,17484 6334,17341C6335,17092 6333,17093 6334,14233C6334,13550 6323,13464 6356,13430C6389,13397 6398,13408 7615,13406C7752,13406 8738,13404 9489,13404Z" style="fill:rgb(251,196,3);"/>
            </g>
            <g transform="matrix(0.062529,0,0,0.062411,0,0)">
                <path d="M2618,14617C2290,14617 2028,14617 2023,14618C1940,14628 1953,14687 1955,15103C1955,15116 1955,15258 1958,15264C1979,15314 2053,15316 2063,15316C2244,15321 3663,15315 3803,15314C3999,15314 4080,15310 4185,15151C4311,14961 4199,14627 3926,14618C3896,14618 3165,14617 2618,14617ZM2651,13404C3543,13405 4377,13406 4423,13410C4513,13417 5232,13436 5659,14236C5897,14683 5942,15487 5410,16050C5110,16369 4849,16428 4714,16473C4518,16539 4435,16526 2891,16527C2011,16528 2003,16521 1975,16550C1949,16577 1954,16698 1954,16886L1954,17384C1954,17394 1953,17496 1941,17510C1909,17547 1904,17539 1856,17540C1750,17541 1751,17539 531,17540C521,17540 415,17540 409,17538C354,17521 346,17511 342,17343C340,17260 341,14786 341,14564C342,13611 340,13611 340,13528C341,13389 393,13407 531,13406C809,13405 1759,13404 2651,13404Z" style="fill:rgb(251,196,3);"/>
            </g>
            <g transform="matrix(0.031264,0,0,0.031205,0,0)">
                <path d="M15345,11722C15316,11115 15248,10212 15241,10147C15172,9530 15181,9529 15169,9477C15147,9381 14968,9312 14805,9247C14775,9234 13427,8641 13413,8634C13366,8609 11856,7947 11819,7925C11686,7845 11786,7642 11958,7071C12578,5017 12592,5021 12644,4842C12700,4651 12742,4642 12683,4577C12671,4564 12667,4541 12651,4534C12595,4513 12257,4637 12233,4644C11787,4767 11790,4775 11752,4786C11712,4797 11319,4903 11256,4940C11138,5010 10819,5639 10688,5851C10602,5991 9957,7154 9852,7189C9723,7232 9496,7094 9271,6981C9218,6955 9053,6914 9083,6749C9087,6728 9305,6233 9456,5939C9589,5679 9577,5674 9662,5502C10355,4089 10329,4068 10447,3969C10457,3961 10718,3843 10923,3789C11032,3760 12759,3186 12815,3168C13457,2961 13485,2885 13989,3087C14517,3299 15010,3456 15143,3514C15390,3621 15706,4121 15954,4442C16529,5191 16595,5363 16712,5372C16807,5379 17519,5060 17555,5046C18096,4834 18082,4803 18375,4695C18961,4478 19068,4301 19197,4597C19291,4810 19461,5116 19463,5176C19468,5287 19434,5298 18794,5612C17937,6032 17938,6033 17864,6069C16943,6511 16949,6522 16868,6558C16469,6738 16410,6787 16319,6724C16243,6671 15313,5595 15308,5589C15162,5431 15161,5432 15148,5418C15045,5303 15059,5271 14975,5272C14883,5274 14911,5321 14750,5767C14620,6128 14627,6131 14616,6162C14241,7195 14257,7257 14318,7327C14396,7419 15523,7982 15872,8184C16349,8461 16434,8416 16460,8658C16520,9228 16500,9228 16529,9985C16546,10421 16487,10416 16260,10789C16219,10858 15762,11612 15735,11651C15596,11856 15536,12032 15467,12040C15348,12054 15354,11869 15345,11722" style="fill:rgb(251,195,5);"/>
            </g>
            <g transform="matrix(0.031264,0,0,0.031205,0,0)">
                <path d="M19528,25509C18990,25508 18990,25513 18944,25505C18809,25480 18813,25450 18810,25312C18805,25159 18810,23027 18810,22829C18814,20939 18793,20930 18851,20826C18885,20766 19079,20779 19363,20779C19818,20780 19871,20737 20036,20999C20089,21085 20401,21581 20702,22075C20769,22185 21227,22936 21560,23447C21609,23523 21610,23558 21693,23521C21736,23502 21728,23493 21873,23259C22090,22909 22095,22912 22688,21924C22749,21822 23320,20902 23361,20859C23432,20783 23444,20773 24250,20778C24495,20780 24504,20843 24504,21089C24504,21427 24504,25176 24501,25313C24494,25534 24373,25509 24168,25510C23543,25511 23416,25523 23365,25457C23308,25382 23341,24803 23332,23491C23329,22955 23416,22777 23245,22877C23195,22906 23161,23011 23115,23091C22722,23771 22708,23761 22674,23821C22561,24019 22031,24866 22013,24898C21946,25013 21907,25039 21514,25020C21278,25009 21248,24813 20919,24332C20892,24292 20724,24047 20600,23826C20547,23732 20206,23203 20135,23053C20093,22965 20123,22921 20025,22919C19907,22916 19969,22985 19976,23325C19977,23372 19978,25298 19977,25315C19967,25556 19822,25510 19528,25509" style="fill:rgb(15,16,15);"/>
            </g>
            <g transform="matrix(0.062529,0,0,0.062411,0,0)">
                <path d="M16465,11433C16444,11432 16456,11411 16436,11410C16433,11410 16427,11410 16414,11431C16409,11440 16410,11452 16405,11461C16411,11583 16411,11583 16411,11706C16410,12679 16419,12706 16389,12735C16361,12762 16226,12755 16145,12754C15870,12754 15803,12780 15798,12657C15796,12617 15796,10511 15796,10506C15797,10434 15788,10418 15857,10395C15865,10392 16251,10392 16268,10396C16352,10411 16345,10429 16731,10874C17097,11294 17258,11490 17303,11544C17390,11650 17400,11697 17433,11698C17488,11701 17467,11638 17467,11457C17465,10449 17467,10447 17480,10427C17506,10385 17575,10393 17889,10391C17962,10391 18075,10368 18083,10466C18085,10490 18084,12649 18084,12656C18082,12767 18043,12756 17931,12756C17600,12756 17582,12772 17498,12672C17105,12212 17105,12212 17098,12203C17010,12082 16612,11643 16465,11433" style="fill:rgb(15,16,15);"/>
            </g>
            <g transform="matrix(0.031264,0,0,0.031205,0,0)">
                <path d="M306,25512C292,25512 133,25508 133,25508C41,25487 27,25421 25,25410C-6,25259 30,22194 10,21260C1,20866 1,20784 223,20783C1119,20778 1125,20765 1192,20804C1288,20859 1241,20893 1253,22334C1255,22563 1323,22560 1551,22560C3075,22562 3075,22574 3206,22558C3367,22540 3345,22418 3343,21756C3340,20939 3323,20844 3439,20804C3510,20780 3522,20776 4371,20781C4560,20782 4575,20822 4581,21010C4589,21262 4568,21262 4576,24156C4579,25322 4594,25324 4567,25410C4531,25528 4476,25510 3708,25512C3455,25513 3350,25531 3344,25317C3338,25134 3351,23705 3337,23669C3333,23657 3303,23583 3212,23564C3148,23550 1387,23558 1381,23560C1274,23582 1261,23651 1254,23908C1217,25321 1369,25500 1054,25509C977,25512 977,25508 306,25512" style="fill:rgb(16,17,16);"/>
            </g>
            <g transform="matrix(0.031264,0,0,0.031205,0,0)">
                <path d="M28082,22068C28000,22052 27993,22064 27957,22140C27910,22239 27923,22245 27406,23406C27367,23496 27350,23501 27395,23589C27423,23642 27436,23622 27497,23623C27828,23628 27826,23613 28156,23620C28544,23611 28543,23617 28576,23615C28844,23600 28651,23345 28602,23230C28401,22759 28402,22760 28293,22511C28109,22093 28120,22076 28082,22068ZM27848,20779C27969,20778 28123,20780 28322,20780C28498,20780 28658,20740 28743,20920C28784,21006 29146,21774 29244,21996C29297,22117 29797,23206 29845,23311C29895,23418 29906,23411 30210,24079C30331,24346 30822,25380 30824,25394C30834,25498 30745,25509 30734,25510C30687,25516 30687,25509 30145,25509C29731,25511 29636,25537 29544,25409C29492,25337 29220,24635 29144,24576C29054,24506 29041,24542 27577,24534C26987,24531 26916,24502 26821,24729C26786,24812 26640,25120 26567,25307C26472,25547 26403,25507 25754,25509C25752,25509 25366,25515 25328,25500C25232,25463 25288,25341 25294,25328C25314,25285 25318,25288 25550,24799C25602,24688 26021,23802 26189,23417C26210,23371 26217,23375 26456,22845C26507,22731 26514,22735 27117,21438C27136,21398 27292,21060 27356,20938C27428,20797 27487,20779 27848,20779Z" style="fill:rgb(15,16,15);"/>
            </g>
            <g transform="matrix(0.031264,0,0,0.031205,0,0)">
                <path d="M8677,25507C8621,25503 8564,25510 8508,25506C8351,25494 8348,25387 8346,25311C8339,25045 8348,21587 8349,21263C8349,20982 8317,20808 8513,20793C8530,20792 9357,20787 9420,20790C9629,20802 9583,21059 9583,21181C9581,21677 9584,21676 9586,22172C9587,22536 9567,22711 9598,22742C9687,22831 9840,22606 9848,22597C10197,22218 10852,21546 10940,21455C11506,20873 11500,20864 11564,20833C11733,20751 12266,20804 12650,20789C12847,20781 12852,20765 12886,20791C12895,20798 12909,20887 12889,20927C12874,20956 12856,20938 12594,21207C12240,21569 11113,22760 11105,22771C11006,22915 11141,23018 11321,23250C11648,23674 11935,24000 12354,24538C12388,24583 12394,24578 12795,25079C13032,25374 13039,25368 13053,25398C13108,25509 12919,25510 12904,25511C11698,25519 11684,25508 11605,25441C11572,25413 10247,23766 10237,23759C10157,23701 10072,23790 10063,23800C9640,24246 9604,24234 9586,24402C9566,24582 9610,25370 9555,25451C9507,25521 9406,25505 8677,25507" style="fill:rgb(14,15,15);"/>
            </g>
            <g transform="matrix(0.031264,0,0,0.031205,0,0)">
                <path d="M16224,21722C15159,21720 15139,21713 15097,21780C15070,21823 15065,21832 15073,22418C15076,22652 15159,22631 15394,22625C15533,22622 16598,22596 17134,22619C17320,22626 17353,22648 17356,22833C17365,23422 17349,23465 17309,23503C17230,23578 16569,23527 16223,23534C15194,23555 15160,23502 15098,23601C15068,23650 15060,23662 15074,24322C15075,24356 15057,24512 15230,24532C15275,24537 17349,24522 17554,24533C17753,24543 17734,24670 17734,24819C17735,25249 17745,25407 17696,25462C17642,25524 17624,25512 15062,25510C13935,25509 13866,25545 13839,25394C13831,25347 13829,21026 13836,20930C13845,20797 13970,20786 13987,20785C14148,20771 17036,20780 17301,20780C17573,20781 17682,20739 17677,21011C17665,21621 17698,21676 17545,21718C17535,21721 16329,21722 16224,21722" style="fill:rgb(15,16,15);"/>
            </g>
            <g transform="matrix(0.031264,0,0,0.031205,0,0)">
                <path d="M9429,12815C9593,12588 9743,12342 9828,12225C10024,11954 10009,11946 10202,11674C10527,11214 10516,11208 10825,10735C11146,10244 11086,10064 11325,9248C11483,8708 11496,8510 11566,8485C11665,8451 11666,8485 11986,8602C12053,8627 12049,8634 12804,8959C13068,9073 12932,9210 12749,9751C12710,9866 12521,10348 12497,10413C12136,11414 12006,11343 11570,11977C11399,12227 11383,12213 11285,12344C10974,12758 10883,12756 9775,13828C9630,13968 9544,14110 9407,14003C8949,13647 8931,13607 8994,13465C8999,13454 9331,12952 9429,12815" style="fill:rgb(251,194,5);"/>
            </g>
            <g transform="matrix(0.031264,0,0,0.031205,0,0)">
                <path d="M13848,1456C13852,1283 13832,792 14369,343C14745,29 15226,-54 15551,52C15817,138 15821,132 16051,292C16622,686 16816,1545 16432,2184C16413,2215 16261,2411 16258,2414C15652,2986 14890,2938 14466,2638C13867,2216 13856,1729 13848,1456" style="fill:rgb(251,196,4);"/>
            </g>
            <g transform="matrix(0.031264,0,0,0.031205,0,0)">
                <path d="M6518,25509C6088,25511 5929,25525 5875,25462C5805,25381 5841,25363 5837,21592C5836,20906 5803,20795 6021,20788C6100,20786 6906,20760 7004,20795C7113,20834 7089,20906 7091,21923C7092,22194 7099,25125 7093,25315C7086,25558 6951,25509 6518,25509" style="fill:rgb(14,15,14);"/>
            </g>
            <g transform="matrix(0.062529,0,0,0.062411,0,0)">
                <path d="M16468,11435L16404,11461C16410,11452 16409,11441 16415,11433C16428,11412 16434,11413 16437,11413C16459,11413 16446,11434 16468,11435Z" style="fill:rgb(154,153,154);"/>
            </g>
        </g>
    </g>
</svg>
